# Blender 4.3.2
# www.blender.org
mtllib Tree2.mtl
o Cylinder
v 0.000000 0.000000 -1.000000
v 0.000000 2.000000 -1.000000
v 0.195090 0.000000 -0.980785
v 0.195090 2.000000 -0.980785
v 0.382683 0.000000 -0.923880
v 0.382683 2.000000 -0.923880
v 0.555570 0.000000 -0.831470
v 0.555570 2.000000 -0.831470
v 0.707107 0.000000 -0.707107
v 0.707107 2.000000 -0.707107
v 0.831470 0.000000 -0.555570
v 0.831470 2.000000 -0.555570
v 0.923880 0.000000 -0.382683
v 0.923880 2.000000 -0.382683
v 0.980785 0.000000 -0.195090
v 0.980785 2.000000 -0.195090
v 1.000000 0.000000 0.000000
v 1.000000 2.000000 0.000000
v 0.980785 0.000000 0.195090
v 0.980785 2.000000 0.195090
v 0.923880 0.000000 0.382683
v 0.923880 2.000000 0.382683
v 0.831470 0.000000 0.555570
v 0.831470 2.000000 0.555570
v 0.707107 0.000000 0.707107
v 0.707107 2.000000 0.707107
v 0.555570 0.000000 0.831470
v 0.555570 2.000000 0.831470
v 0.382683 0.000000 0.923880
v 0.382683 2.000000 0.923880
v 0.195090 0.000000 0.980785
v 0.195090 2.000000 0.980785
v 0.000000 0.000000 1.000000
v 0.000000 2.000000 1.000000
v -0.195090 0.000000 0.980785
v -0.195090 2.000000 0.980785
v -0.382683 0.000000 0.923880
v -0.382683 2.000000 0.923880
v -0.555570 0.000000 0.831470
v -0.555570 2.000000 0.831470
v -0.707107 0.000000 0.707107
v -0.707107 2.000000 0.707107
v -0.831470 0.000000 0.555570
v -0.831470 2.000000 0.555570
v -0.923880 0.000000 0.382683
v -0.923880 2.000000 0.382683
v -0.980785 0.000000 0.195090
v -0.980785 2.000000 0.195090
v -1.000000 0.000000 0.000000
v -1.000000 2.000000 0.000000
v -0.980785 0.000000 -0.195090
v -0.980785 2.000000 -0.195090
v -0.923880 0.000000 -0.382683
v -0.923880 2.000000 -0.382683
v -0.831470 0.000000 -0.555570
v -0.831470 2.000000 -0.555570
v -0.707107 0.000000 -0.707107
v -0.707107 2.000000 -0.707107
v -0.555570 0.000000 -0.831470
v -0.555570 2.000000 -0.831470
v -0.382683 0.000000 -0.923880
v -0.382683 2.000000 -0.923880
v -0.195090 0.000000 -0.980785
v -0.195090 2.000000 -0.980785
v 0.430290 2.105527 -2.163216
v -0.000000 2.105527 -2.205596
v 0.844045 2.105527 -2.037705
v 1.225364 2.105527 -1.833886
v 1.559592 2.105527 -1.559592
v 1.833886 2.105527 -1.225364
v 2.037705 2.105527 -0.844045
v 2.163216 2.105527 -0.430291
v 2.205596 2.105527 0.000000
v 2.163216 2.105527 0.430291
v 2.037705 2.105527 0.844045
v 1.833886 2.105527 1.225364
v 1.559592 2.105527 1.559592
v 1.225364 2.105527 1.833886
v 0.844045 2.105527 2.037705
v 0.430290 2.105527 2.163216
v -0.000000 2.105527 2.205596
v -0.430291 2.105527 2.163216
v -0.844045 2.105527 2.037705
v -1.225364 2.105527 1.833886
v -1.559592 2.105527 1.559592
v -1.833886 2.105527 1.225364
v -2.037705 2.105527 0.844045
v -2.163216 2.105527 0.430291
v -2.205596 2.105527 0.000000
v -2.163216 2.105527 -0.430291
v -2.037705 2.105527 -0.844045
v -1.833886 2.105527 -1.225364
v -1.559592 2.105527 -1.559592
v -1.225364 2.105527 -1.833886
v -0.844045 2.105527 -2.037705
v -0.430291 2.105527 -2.163216
v -1.068144 4.523643 0.442440
v -1.133936 4.523643 0.225554
v 1.133936 4.523643 0.225554
v 1.068144 4.523643 0.442440
v -1.156151 4.523643 0.000000
v 0.961304 4.523643 0.642323
v -1.133936 4.523643 -0.225554
v 0.817522 4.523643 0.817522
v -1.068144 4.523643 -0.442440
v 0.642323 4.523643 0.961304
v -0.961304 4.523643 -0.642323
v 0.442440 4.523643 1.068144
v -0.000000 4.523643 -1.156151
v 0.225554 4.523643 -1.133936
v -0.817522 4.523643 -0.817522
v 0.225554 4.523643 1.133936
v 0.442440 4.523643 -1.068144
v -0.642323 4.523643 -0.961304
v -0.000000 4.523643 1.156151
v 0.642323 4.523643 -0.961304
v -0.442440 4.523643 -1.068144
v -0.225554 4.523643 1.133936
v 0.817522 4.523643 -0.817522
v -0.225554 4.523643 -1.133936
v -0.442440 4.523643 1.068144
v 0.961304 4.523643 -0.642323
v -0.642323 4.523643 0.961304
v 1.068144 4.523643 -0.442440
v -0.817522 4.523643 0.817522
v 1.133936 4.523643 -0.225554
v -0.961304 4.523643 0.642323
v 1.156151 4.523643 0.000000
v 0.005759 7.924118 -0.028952
v -0.000000 7.924118 -0.029519
v 0.011296 7.924118 -0.027272
v 0.016400 7.924118 -0.024544
v 0.020873 7.924118 -0.020873
v 0.024544 7.924118 -0.016400
v 0.027272 7.924118 -0.011296
v 0.028952 7.924118 -0.005759
v 0.029519 7.924118 0.000000
v 0.028952 7.924118 0.005759
v 0.027272 7.924118 0.011296
v 0.024544 7.924118 0.016400
v 0.020873 7.924118 0.020873
v 0.016400 7.924118 0.024544
v 0.011296 7.924118 0.027272
v 0.005759 7.924118 0.028952
v -0.000000 7.924118 0.029519
v -0.005759 7.924118 0.028952
v -0.011296 7.924118 0.027272
v -0.016400 7.924118 0.024544
v -0.020873 7.924118 0.020873
v -0.024544 7.924118 0.016400
v -0.027272 7.924118 0.011296
v -0.028952 7.924118 0.005759
v -0.029519 7.924118 0.000000
v -0.028952 7.924118 -0.005759
v -0.027272 7.924118 -0.011296
v -0.024544 7.924118 -0.016400
v -0.020873 7.924118 -0.020873
v -0.016400 7.924118 -0.024544
v -0.011296 7.924118 -0.027272
v -0.005759 7.924118 -0.028952
v -1.605150 4.523643 0.664875
v 1.704018 4.523643 0.338950
v -0.000000 4.523643 -1.737402
v -1.704018 4.523643 0.338950
v 1.605150 4.523643 0.664875
v -1.737402 4.523643 0.000000
v 1.444597 4.523643 0.965249
v -1.704018 4.523643 -0.338950
v 1.228529 4.523643 1.228529
v -1.605150 4.523643 -0.664875
v 0.965249 4.523643 1.444597
v -1.444597 4.523643 -0.965249
v 0.664875 4.523643 1.605150
v 0.338950 4.523643 -1.704018
v -1.228528 4.523643 -1.228529
v 0.338950 4.523643 1.704018
v 0.664875 4.523643 -1.605150
v -0.965249 4.523643 -1.444597
v -0.000000 4.523643 1.737402
v 0.965249 4.523643 -1.444597
v -0.664875 4.523643 -1.605150
v -0.338950 4.523643 1.704018
v 1.228529 4.523643 -1.228529
v -0.338950 4.523643 -1.704018
v -0.664875 4.523643 1.605150
v 1.444597 4.523643 -0.965249
v -0.965249 4.523643 1.444597
v 1.605150 4.523643 -0.664875
v -1.228528 4.523643 1.228529
v 1.704018 4.523643 -0.338950
v -1.444597 4.523643 0.965249
v 1.737402 4.523643 0.000000
v -2.403896 2.088333 0.019531
v -2.361516 2.088333 0.449821
v -1.332236 4.506449 0.245085
v -1.354451 4.506449 0.019531
v -1.902318 4.506449 0.358481
v -1.935702 4.506449 0.019531
v -0.227819 7.906923 0.019531
v -0.227252 7.906923 0.025290
vn 0.0980 -0.0000 -0.9952
vn 0.2903 -0.0000 -0.9569
vn 0.4714 -0.0000 -0.8819
vn 0.6344 -0.0000 -0.7730
vn 0.7730 -0.0000 -0.6344
vn 0.8819 -0.0000 -0.4714
vn 0.9569 -0.0000 -0.2903
vn 0.9952 -0.0000 -0.0980
vn 0.9952 -0.0000 0.0980
vn 0.9569 -0.0000 0.2903
vn 0.8819 -0.0000 0.4714
vn 0.7730 -0.0000 0.6344
vn 0.6344 -0.0000 0.7730
vn 0.4714 -0.0000 0.8819
vn 0.2903 -0.0000 0.9569
vn 0.0980 -0.0000 0.9952
vn -0.0980 -0.0000 0.9952
vn -0.2903 -0.0000 0.9569
vn -0.4714 -0.0000 0.8819
vn -0.6344 -0.0000 0.7730
vn -0.7730 -0.0000 0.6344
vn -0.8819 -0.0000 0.4714
vn -0.9569 -0.0000 0.2903
vn -0.9952 -0.0000 0.0980
vn -0.9952 -0.0000 -0.0980
vn -0.9569 -0.0000 -0.2903
vn -0.8819 -0.0000 -0.4714
vn -0.7730 -0.0000 -0.6344
vn -0.6344 -0.0000 -0.7730
vn -0.4714 -0.0000 -0.8819
vn 0.0556 -0.9962 -0.0677
vn -0.2903 -0.0000 -0.9569
vn -0.0980 -0.0000 -0.9952
vn -0.0000 -1.0000 -0.0000
vn 0.0556 -0.9962 0.0677
vn -0.0773 -0.9962 0.0413
vn -0.0254 -0.9962 -0.0838
vn 0.0872 -0.9962 0.0086
vn -0.0254 -0.9962 0.0838
vn -0.0773 -0.9962 -0.0413
vn 0.0677 -0.9962 -0.0556
vn 0.0413 -0.9962 0.0773
vn -0.0838 -0.9962 0.0254
vn 0.0086 -0.9962 -0.0872
vn -0.0086 -0.9962 -0.0872
vn 0.0838 -0.9962 0.0254
vn -0.0413 -0.9962 0.0773
vn -0.0677 -0.9962 -0.0556
vn 0.0773 -0.9962 -0.0413
vn 0.0254 -0.9962 0.0838
vn -0.0872 -0.9962 0.0086
vn 0.0254 -0.9962 -0.0838
vn 0.0773 -0.9962 0.0413
vn -0.0556 -0.9962 0.0677
vn -0.0556 -0.9962 -0.0677
vn 0.0838 -0.9962 -0.0254
vn 0.0086 -0.9962 0.0872
vn -0.0872 -0.9962 -0.0086
vn 0.0413 -0.9962 -0.0773
vn 0.0677 -0.9962 0.0556
vn -0.0677 -0.9962 0.0556
vn -0.0413 -0.9962 -0.0773
vn 0.0872 -0.9962 -0.0086
vn -0.0086 -0.9962 0.0872
vn -0.0838 -0.9962 -0.0254
vn 0.0856 -0.9963 -0.0084
vn 0.9136 0.3965 0.0900
vn -0.8096 0.3965 0.4328
vn 0.9136 0.3965 -0.0900
vn -0.7096 0.3965 0.5824
vn 0.8785 0.3965 -0.2665
vn -0.5824 0.3965 0.7096
vn 0.8096 0.3965 -0.4328
vn -0.4328 0.3965 0.8096
vn -0.0900 0.3965 -0.9136
vn 0.7096 0.3965 -0.5824
vn -0.2665 0.3965 0.8785
vn -0.2665 0.3965 -0.8785
vn 0.5824 0.3965 -0.7096
vn -0.0900 0.3965 0.9136
vn -0.4328 0.3965 -0.8096
vn 0.4328 0.3965 -0.8096
vn 0.0900 0.3965 0.9136
vn -0.5824 0.3965 -0.7096
vn 0.2665 0.3965 -0.8785
vn 0.2665 0.3965 0.8785
vn -0.7096 0.3965 -0.5824
vn 0.0900 0.3965 -0.9136
vn 0.4328 0.3965 0.8096
vn -0.8096 0.3965 -0.4328
vn 0.5824 0.3965 0.7096
vn -0.8785 0.3965 -0.2665
vn 0.7096 0.3965 0.5824
vn -0.9136 0.3965 -0.0900
vn 0.8096 0.3965 0.4328
vn -0.0000 -0.7506 -0.6608
vn 0.8785 0.3965 0.2665
vn -0.8785 0.3965 0.2665
vn -0.8560 0.4471 0.2597
vn -0.0000 1.0000 -0.0000
vn 0.8560 0.4471 0.2597
vn -0.0856 0.9963 0.0084
vn 0.7889 0.4471 0.4217
vn -0.8902 0.4471 -0.0877
vn 0.6914 0.4471 0.5675
vn -0.8560 0.4471 -0.2597
vn 0.5675 0.4471 0.6914
vn -0.7889 0.4471 -0.4217
vn 0.4217 0.4471 0.7889
vn 0.0877 0.4471 -0.8902
vn -0.6914 0.4471 -0.5675
vn 0.2597 0.4471 0.8560
vn 0.2597 0.4471 -0.8560
vn -0.5675 0.4471 -0.6914
vn 0.0877 0.4471 0.8902
vn 0.4217 0.4471 -0.7889
vn -0.4217 0.4471 -0.7889
vn -0.0877 0.4471 0.8902
vn 0.5675 0.4471 -0.6914
vn -0.2597 0.4471 -0.8560
vn -0.2597 0.4471 0.8560
vn 0.6914 0.4471 -0.5675
vn -0.0877 0.4471 -0.8902
vn -0.4217 0.4471 0.7889
vn 0.7889 0.4471 -0.4217
vn -0.5675 0.4471 0.6914
vn 0.8560 0.4471 -0.2597
vn -0.6914 0.4471 0.5675
vn 0.8902 0.4471 -0.0877
vn -0.7889 0.4471 0.4217
vn 0.8902 0.4471 0.0877
vn -0.9136 0.3965 0.0900
vn -0.8902 0.4471 0.0877
vn -0.1023 0.0514 -0.9934
vn 0.0941 0.0441 0.9946
vn 0.0935 0.0514 0.9943
vn 0.1289 -0.7506 0.6481
vn -0.1017 0.0441 -0.9938
vt 1.000000 0.500000
vt 1.000000 1.000000
vt 0.968750 1.000000
vt 0.968750 0.500000
vt 0.937500 1.000000
vt 0.937500 0.500000
vt 0.906250 1.000000
vt 0.906250 0.500000
vt 0.875000 1.000000
vt 0.875000 0.500000
vt 0.843750 1.000000
vt 0.843750 0.500000
vt 0.812500 1.000000
vt 0.812500 0.500000
vt 0.781250 1.000000
vt 0.781250 0.500000
vt 0.750000 1.000000
vt 0.750000 0.500000
vt 0.718750 1.000000
vt 0.718750 0.500000
vt 0.687500 1.000000
vt 0.687500 0.500000
vt 0.656250 1.000000
vt 0.656250 0.500000
vt 0.625000 1.000000
vt 0.625000 0.500000
vt 0.593750 1.000000
vt 0.593750 0.500000
vt 0.562500 1.000000
vt 0.562500 0.500000
vt 0.531250 1.000000
vt 0.531250 0.500000
vt 0.500000 1.000000
vt 0.500000 0.500000
vt 0.468750 1.000000
vt 0.468750 0.500000
vt 0.437500 1.000000
vt 0.437500 0.500000
vt 0.406250 1.000000
vt 0.406250 0.500000
vt 0.375000 1.000000
vt 0.375000 0.500000
vt 0.343750 1.000000
vt 0.343750 0.500000
vt 0.312500 1.000000
vt 0.312500 0.500000
vt 0.281250 1.000000
vt 0.281250 0.500000
vt 0.250000 1.000000
vt 0.250000 0.500000
vt 0.218750 1.000000
vt 0.218750 0.500000
vt 0.187500 1.000000
vt 0.187500 0.500000
vt 0.156250 1.000000
vt 0.156250 0.500000
vt 0.125000 1.000000
vt 0.125000 0.500000
vt 0.093750 1.000000
vt 0.093750 0.500000
vt 0.062500 1.000000
vt 0.062500 0.500000
vt 0.031250 1.000000
vt 0.031250 0.500000
vt 0.000000 1.000000
vt 0.000000 0.500000
vt 0.750000 0.490000
vt 0.796822 0.485388
vt 0.841844 0.471731
vt 0.883337 0.449553
vt 0.919706 0.419706
vt 0.949553 0.383337
vt 0.971731 0.341844
vt 0.985388 0.296822
vt 0.990000 0.250000
vt 0.985388 0.203178
vt 0.971731 0.158156
vt 0.949553 0.116663
vt 0.919706 0.080294
vt 0.883337 0.050447
vt 0.841844 0.028269
vt 0.796822 0.014612
vt 0.750000 0.010000
vt 0.703178 0.014612
vt 0.658156 0.028269
vt 0.616663 0.050447
vt 0.580294 0.080294
vt 0.550447 0.116663
vt 0.528269 0.158156
vt 0.514612 0.203178
vt 0.510000 0.250000
vt 0.514612 0.296822
vt 0.528269 0.341844
vt 0.550447 0.383337
vt 0.580294 0.419706
vt 0.616663 0.449553
vt 0.658156 0.471731
vt 0.703178 0.485388
vt 0.562500 1.000000
vt 0.406250 1.000000
vt 0.125000 1.000000
vt 0.531250 1.000000
vt 0.218750 1.000000
vt 0.296822 0.485388
vt 0.250000 0.490000
vt 0.203178 0.485388
vt 0.158156 0.471731
vt 0.116663 0.449553
vt 0.080294 0.419706
vt 0.050447 0.383337
vt 0.028269 0.341844
vt 0.014612 0.296822
vt 0.010000 0.250000
vt 0.014612 0.203178
vt 0.028269 0.158156
vt 0.050447 0.116663
vt 0.080294 0.080294
vt 0.116663 0.050447
vt 0.158156 0.028269
vt 0.203178 0.014612
vt 0.250000 0.010000
vt 0.296822 0.014612
vt 0.341844 0.028269
vt 0.383337 0.050447
vt 0.419706 0.080294
vt 0.449553 0.116663
vt 0.471731 0.158156
vt 0.485388 0.203178
vt 0.490000 0.250000
vt 0.485388 0.296822
vt 0.471731 0.341844
vt 0.449553 0.383337
vt 0.419706 0.419706
vt 0.383337 0.449553
vt 0.341844 0.471731
s 0
f 1/1/1 2/2/1 4/3/1 3/4/1
f 3/4/2 4/3/2 6/5/2 5/6/2
f 5/6/3 6/5/3 8/7/3 7/8/3
f 7/8/4 8/7/4 10/9/4 9/10/4
f 9/10/5 10/9/5 12/11/5 11/12/5
f 11/12/6 12/11/6 14/13/6 13/14/6
f 13/14/7 14/13/7 16/15/7 15/16/7
f 15/16/8 16/15/8 18/17/8 17/18/8
f 17/18/9 18/17/9 20/19/9 19/20/9
f 19/20/10 20/19/10 22/21/10 21/22/10
f 21/22/11 22/21/11 24/23/11 23/24/11
f 23/24/12 24/23/12 26/25/12 25/26/12
f 25/26/13 26/25/13 28/27/13 27/28/13
f 27/28/14 28/27/14 30/29/14 29/30/14
f 29/30/15 30/29/15 32/31/15 31/32/15
f 31/32/16 32/31/16 34/33/16 33/34/16
f 33/34/17 34/33/17 36/35/17 35/36/17
f 35/36/18 36/35/18 38/37/18 37/38/18
f 37/38/19 38/37/19 40/39/19 39/40/19
f 39/40/20 40/39/20 42/41/20 41/42/20
f 41/42/21 42/41/21 44/43/21 43/44/21
f 43/44/22 44/43/22 46/45/22 45/46/22
f 45/46/23 46/45/23 48/47/23 47/48/23
f 47/48/24 48/47/24 50/49/24 49/50/24
f 49/50/25 50/49/25 52/51/25 51/52/25
f 51/52/26 52/51/26 54/53/26 53/54/26
f 53/54/27 54/53/27 56/55/27 55/56/27
f 55/56/28 56/55/28 58/57/28 57/58/28
f 57/58/29 58/57/29 60/59/29 59/60/29
f 59/60/30 60/59/30 62/61/30 61/62/30
f 10/9/31 8/7/31 68/7/31 69/9/31
f 61/62/32 62/61/32 64/63/32 63/64/32
f 63/64/33 64/63/33 2/65/33 1/66/33
f 1/67/34 3/68/34 5/69/34 7/70/34 9/71/34 11/72/34 13/73/34 15/74/34 17/75/34 19/76/34 21/77/34 23/78/34 25/79/34 27/80/34 29/81/34 31/82/34 33/83/34 35/84/34 37/85/34 39/86/34 41/87/34 43/88/34 45/89/34 47/90/34 49/91/34 51/92/34 53/93/34 55/94/34 57/95/34 59/96/34 61/97/34 63/98/34
f 28/27/35 26/25/35 77/25/35 78/27/35
f 46/45/36 44/43/36 86/43/36 87/45/36
f 64/63/37 62/61/37 95/61/37 96/63/37
f 20/19/38 18/17/38 73/17/38 74/19/38
f 38/37/39 36/35/39 82/35/39 83/37/39
f 56/55/40 54/53/40 91/53/40 92/55/40
f 12/11/41 10/9/41 69/9/41 70/11/41
f 30/29/42 28/27/42 78/27/42 79/29/42
f 48/47/43 46/45/43 87/45/43 88/47/43
f 4/3/44 2/2/44 66/2/44 65/3/44
f 2/65/45 64/63/45 96/63/45 66/65/45
f 22/21/46 20/19/46 74/19/46 75/21/46
f 40/39/47 38/37/47 83/37/47 84/39/47
f 58/57/48 56/55/48 92/55/48 93/57/48
f 14/13/49 12/11/49 70/11/49 71/13/49
f 32/31/50 30/29/50 79/29/50 80/31/50
f 50/49/51 48/47/51 88/47/51 89/49/51
f 6/5/52 4/3/52 65/3/52 67/5/52
f 24/23/53 22/21/53 75/21/53 76/23/53
f 42/41/54 40/39/54 84/39/54 85/41/54
f 60/59/55 58/57/55 93/57/55 94/59/55
f 16/15/56 14/13/56 71/13/56 72/15/56
f 34/33/57 32/31/57 80/31/57 81/33/57
f 52/51/58 50/49/58 89/49/58 90/51/58
f 8/7/59 6/5/59 67/5/59 68/7/59
f 26/25/60 24/23/60 76/23/60 77/25/60
f 44/43/61 42/41/61 85/41/61 86/43/61
f 62/61/62 60/59/62 94/59/62 95/61/62
f 18/17/63 16/15/63 72/15/63 73/17/63
f 36/35/64 34/33/64 81/33/64 82/35/64
f 54/53/65 52/51/65 90/51/65 91/53/65
f 107/55/34 105/53/34 170/53/34 172/55/34
f 122/11/34 119/9/34 183/9/34 186/11/34
f 108/99/34 106/27/34 171/27/34 173/99/34
f 109/65/34 120/63/34 184/63/34 163/65/34
f 110/3/34 109/2/34 163/2/34 174/3/34
f 123/100/34 121/37/34 185/37/34 187/100/34
f 111/101/34 107/55/34 172/55/34 175/101/34
f 124/13/34 122/11/34 186/11/34 188/13/34
f 112/102/34 108/99/34 173/99/34 176/102/34
f 125/41/34 123/100/34 187/100/34 189/41/34
f 113/5/34 110/3/34 174/3/34 177/5/34
f 98/47/34 97/45/34 161/45/34 164/47/34
f 126/15/34 124/13/34 188/13/34 190/15/34
f 114/59/34 111/101/34 175/101/34 178/59/34
f 100/21/34 99/19/34 162/19/34 165/21/34
f 127/43/34 125/41/34 189/41/34 191/43/34
f 115/33/34 112/102/34 176/102/34 179/33/34
f 89/49/66 88/47/66 194/47/66 193/49/66
f 128/17/34 126/15/34 190/15/34 192/17/34
f 116/7/34 113/5/34 177/5/34 180/7/34
f 102/23/34 100/21/34 165/21/34 167/23/34
f 97/45/34 127/43/34 191/43/34 161/45/34
f 117/61/34 114/59/34 178/59/34 181/61/34
f 103/103/34 101/49/34 166/49/34 168/103/34
f 99/19/34 128/17/34 192/17/34 162/19/34
f 118/35/34 115/33/34 179/33/34 182/35/34
f 104/25/34 102/23/34 167/23/34 169/25/34
f 119/9/34 116/7/34 180/7/34 183/9/34
f 105/53/34 103/103/34 168/103/34 170/53/34
f 120/63/34 117/61/34 181/61/34 184/63/34
f 106/27/34 104/25/34 169/25/34 171/27/34
f 121/37/34 118/35/34 182/35/34 185/37/34
f 74/19/67 73/17/67 128/17/67 99/19/67
f 87/45/68 86/43/68 127/43/68 97/45/68
f 73/17/69 72/15/69 126/15/69 128/17/69
f 86/43/70 85/41/70 125/41/70 127/43/70
f 72/15/71 71/13/71 124/13/71 126/15/71
f 85/41/72 84/39/72 123/100/72 125/41/72
f 71/13/73 70/11/73 122/11/73 124/13/73
f 84/39/74 83/37/74 121/37/74 123/100/74
f 66/65/75 96/63/75 120/63/75 109/65/75
f 70/11/76 69/9/76 119/9/76 122/11/76
f 83/37/77 82/35/77 118/35/77 121/37/77
f 96/63/78 95/61/78 117/61/78 120/63/78
f 69/9/79 68/7/79 116/7/79 119/9/79
f 82/35/80 81/33/80 115/33/80 118/35/80
f 95/61/81 94/59/81 114/59/81 117/61/81
f 68/7/82 67/5/82 113/5/82 116/7/82
f 81/33/83 80/31/83 112/102/83 115/33/83
f 94/59/84 93/57/84 111/101/84 114/59/84
f 67/5/85 65/3/85 110/3/85 113/5/85
f 80/31/86 79/29/86 108/99/86 112/102/86
f 93/57/87 92/55/87 107/55/87 111/101/87
f 65/3/88 66/2/88 109/2/88 110/3/88
f 79/29/89 78/27/89 106/27/89 108/99/89
f 92/55/90 91/53/90 105/53/90 107/55/90
f 78/27/91 77/25/91 104/25/91 106/27/91
f 91/53/92 90/51/92 103/103/92 105/53/92
f 77/25/93 76/23/93 102/23/93 104/25/93
f 90/51/94 89/49/94 101/49/94 103/103/94
f 76/23/95 75/21/95 100/21/95 102/23/95
f 166/49/96 101/49/96 196/49/96 198/49/96
f 75/21/97 74/19/97 99/19/97 100/21/97
f 88/47/98 87/45/98 97/45/98 98/47/98
f 164/47/99 161/45/99 151/45/99 152/47/99
f 129/104/100 130/105/100 160/106/100 159/107/100 158/108/100 157/109/100 156/110/100 155/111/100 154/112/100 153/113/100 152/114/100 151/115/100 150/116/100 149/117/100 148/118/100 147/119/100 146/120/100 145/121/100 144/122/100 143/123/100 142/124/100 141/125/100 140/126/100 139/127/100 138/128/100 137/129/100 136/130/100 135/131/100 134/132/100 133/133/100 132/134/100 131/135/100
f 165/21/101 162/19/101 138/19/101 139/21/101
f 152/114/102 153/113/102 199/113/102 200/114/102
f 167/23/103 165/21/103 139/21/103 140/23/103
f 168/103/104 166/49/104 153/49/104 154/51/104
f 169/25/105 167/23/105 140/23/105 141/25/105
f 170/53/106 168/103/106 154/51/106 155/53/106
f 171/27/107 169/25/107 141/25/107 142/27/107
f 172/55/108 170/53/108 155/53/108 156/55/108
f 173/99/109 171/27/109 142/27/109 143/29/109
f 174/3/110 163/2/110 130/2/110 129/3/110
f 175/101/111 172/55/111 156/55/111 157/57/111
f 176/102/112 173/99/112 143/29/112 144/31/112
f 177/5/113 174/3/113 129/3/113 131/5/113
f 178/59/114 175/101/114 157/57/114 158/59/114
f 179/33/115 176/102/115 144/31/115 145/33/115
f 180/7/116 177/5/116 131/5/116 132/7/116
f 181/61/117 178/59/117 158/59/117 159/61/117
f 182/35/118 179/33/118 145/33/118 146/35/118
f 183/9/119 180/7/119 132/7/119 133/9/119
f 184/63/120 181/61/120 159/61/120 160/63/120
f 185/37/121 182/35/121 146/35/121 147/37/121
f 186/11/122 183/9/122 133/9/122 134/11/122
f 163/65/123 184/63/123 160/63/123 130/65/123
f 187/100/124 185/37/124 147/37/124 148/39/124
f 188/13/125 186/11/125 134/11/125 135/13/125
f 189/41/126 187/100/126 148/39/126 149/41/126
f 190/15/127 188/13/127 135/13/127 136/15/127
f 191/43/128 189/41/128 149/41/128 150/43/128
f 192/17/129 190/15/129 136/15/129 137/17/129
f 161/45/130 191/43/130 150/43/130 151/45/130
f 162/19/131 192/17/131 137/17/131 138/19/131
f 196/49/34 195/47/34 197/47/34 198/49/34
f 193/49/132 194/47/132 195/47/132 196/49/132
f 198/49/133 197/47/133 200/47/133 199/49/133
f 153/49/134 166/49/134 198/49/134 199/49/134
f 88/47/135 98/47/135 195/47/135 194/47/135
f 164/47/136 152/47/136 200/47/136 197/47/136
f 98/47/137 164/47/137 197/47/137 195/47/137
f 101/49/138 89/49/138 193/49/138 196/49/138
