# Blender 4.3.2
# www.blender.org
mtllib Tree2.mtl
o Cylinder
v 0.000000 0.000000 -1.000000
v 0.000000 2.000000 -1.000000
v 0.195090 0.000000 -0.980785
v 0.195090 2.000000 -0.980785
v 0.382683 0.000000 -0.923880
v 0.382683 2.000000 -0.923880
v 0.555570 0.000000 -0.831470
v 0.555570 2.000000 -0.831470
v 0.707107 0.000000 -0.707107
v 0.707107 2.000000 -0.707107
v 0.831470 0.000000 -0.555570
v 0.831470 2.000000 -0.555570
v 0.923880 0.000000 -0.382683
v 0.923880 2.000000 -0.382683
v 0.980785 0.000000 -0.195090
v 0.980785 2.000000 -0.195090
v 1.000000 0.000000 0.000000
v 1.000000 2.000000 0.000000
v 0.980785 0.000000 0.195090
v 0.980785 2.000000 0.195090
v 0.923880 0.000000 0.382683
v 0.923880 2.000000 0.382683
v 0.831470 0.000000 0.555570
v 0.831470 2.000000 0.555570
v 0.707107 0.000000 0.707107
v 0.707107 2.000000 0.707107
v 0.555570 0.000000 0.831470
v 0.555570 2.000000 0.831470
v 0.382683 0.000000 0.923880
v 0.382683 2.000000 0.923880
v 0.195090 0.000000 0.980785
v 0.195090 2.000000 0.980785
v 0.000000 0.000000 1.000000
v 0.000000 2.000000 1.000000
v -0.195090 0.000000 0.980785
v -0.195090 2.000000 0.980785
v -0.382683 0.000000 0.923880
v -0.382683 2.000000 0.923880
v -0.555570 0.000000 0.831470
v -0.555570 2.000000 0.831470
v -0.707107 0.000000 0.707107
v -0.707107 2.000000 0.707107
v -0.831470 0.000000 0.555570
v -0.831470 2.000000 0.555570
v -0.923880 0.000000 0.382683
v -0.923880 2.000000 0.382683
v -0.980785 0.000000 0.195090
v -0.980785 2.000000 0.195090
v -1.000000 0.000000 0.000000
v -1.000000 2.000000 0.000000
v -0.980785 0.000000 -0.195090
v -0.980785 2.000000 -0.195090
v -0.923880 0.000000 -0.382683
v -0.923880 2.000000 -0.382683
v -0.831470 0.000000 -0.555570
v -0.831470 2.000000 -0.555570
v -0.707107 0.000000 -0.707107
v -0.707107 2.000000 -0.707107
v -0.555570 0.000000 -0.831470
v -0.555570 2.000000 -0.831470
v -0.382683 0.000000 -0.923880
v -0.382683 2.000000 -0.923880
v -0.195090 0.000000 -0.980785
v -0.195090 2.000000 -0.980785
v 0.430290 2.105527 -2.163216
v -0.000000 2.105527 -2.205596
v 0.844045 2.105527 -2.037705
v 1.225364 2.105527 -1.833886
v 1.559592 2.105527 -1.559592
v 1.833886 2.105527 -1.225364
v 2.037705 2.105527 -0.844045
v 2.163216 2.105527 -0.430291
v 2.205596 2.105527 0.000000
v 2.163216 2.105527 0.430291
v 2.037705 2.105527 0.844045
v 1.833886 2.105527 1.225364
v 1.559592 2.105527 1.559592
v 1.225364 2.105527 1.833886
v 0.844045 2.105527 2.037705
v 0.430290 2.105527 2.163216
v -0.000000 2.105527 2.205596
v -0.430291 2.105527 2.163216
v -0.844045 2.105527 2.037705
v -1.225364 2.105527 1.833886
v -1.559592 2.105527 1.559592
v -1.833886 2.105527 1.225364
v -2.037705 2.105527 0.844045
v -2.163216 2.105527 0.430291
v -2.205596 2.105527 0.000000
v -2.163216 2.105527 -0.430291
v -2.037705 2.105527 -0.844045
v -1.833886 2.105527 -1.225364
v -1.559592 2.105527 -1.559592
v -1.225364 2.105527 -1.833886
v -0.844045 2.105527 -2.037705
v -0.430291 2.105527 -2.163216
v -1.068144 4.523643 0.442440
v -1.133936 4.523643 0.225554
v 1.133936 4.523643 0.225554
v 1.068144 4.523643 0.442440
v -1.156151 4.523643 0.000000
v 0.961304 4.523643 0.642323
v -1.133936 4.523643 -0.225554
v 0.817522 4.523643 0.817522
v -1.068144 4.523643 -0.442440
v 0.642323 4.523643 0.961304
v -0.961304 4.523643 -0.642323
v 0.442440 4.523643 1.068144
v -0.000000 4.523643 -1.156151
v 0.225554 4.523643 -1.133936
v -0.817522 4.523643 -0.817522
v 0.225554 4.523643 1.133936
v 0.442440 4.523643 -1.068144
v -0.642323 4.523643 -0.961304
v -0.000000 4.523643 1.156151
v 0.642323 4.523643 -0.961304
v -0.442440 4.523643 -1.068144
v -0.225554 4.523643 1.133936
v 0.817522 4.523643 -0.817522
v -0.225554 4.523643 -1.133936
v -0.442440 4.523643 1.068144
v 0.961304 4.523643 -0.642323
v -0.642323 4.523643 0.961304
v 1.068144 4.523643 -0.442440
v -0.817522 4.523643 0.817522
v 1.133936 4.523643 -0.225554
v -0.961304 4.523643 0.642323
v 1.156151 4.523643 0.000000
v 0.005759 7.924118 -0.028952
v -0.000000 7.924118 -0.029519
v 0.011296 7.924118 -0.027272
v 0.016400 7.924118 -0.024544
v 0.020873 7.924118 -0.020873
v 0.024544 7.924118 -0.016400
v 0.027272 7.924118 -0.011296
v 0.028952 7.924118 -0.005759
v 0.029519 7.924118 0.000000
v 0.028952 7.924118 0.005759
v 0.027272 7.924118 0.011296
v 0.024544 7.924118 0.016400
v 0.020873 7.924118 0.020873
v 0.016400 7.924118 0.024544
v 0.011296 7.924118 0.027272
v 0.005759 7.924118 0.028952
v -0.000000 7.924118 0.029519
v -0.005759 7.924118 0.028952
v -0.011296 7.924118 0.027272
v -0.016400 7.924118 0.024544
v -0.020873 7.924118 0.020873
v -0.024544 7.924118 0.016400
v -0.027272 7.924118 0.011296
v -0.028952 7.924118 0.005759
v -0.029519 7.924118 0.000000
v -0.028952 7.924118 -0.005759
v -0.027272 7.924118 -0.011296
v -0.024544 7.924118 -0.016400
v -0.020873 7.924118 -0.020873
v -0.016400 7.924118 -0.024544
v -0.011296 7.924118 -0.027272
v -0.005759 7.924118 -0.028952
v -1.605150 4.523643 0.664875
v 1.704018 4.523643 0.338950
v -0.000000 4.523643 -1.737402
v -1.704018 4.523643 0.338950
v 1.605150 4.523643 0.664875
v -1.737402 4.523643 0.000000
v 1.444597 4.523643 0.965249
v -1.704018 4.523643 -0.338950
v 1.228529 4.523643 1.228529
v -1.605150 4.523643 -0.664875
v 0.965249 4.523643 1.444597
v -1.444597 4.523643 -0.965249
v 0.664875 4.523643 1.605150
v 0.338950 4.523643 -1.704018
v -1.228528 4.523643 -1.228529
v 0.338950 4.523643 1.704018
v 0.664875 4.523643 -1.605150
v -0.965249 4.523643 -1.444597
v -0.000000 4.523643 1.737402
v 0.965249 4.523643 -1.444597
v -0.664875 4.523643 -1.605150
v -0.338950 4.523643 1.704018
v 1.228529 4.523643 -1.228529
v -0.338950 4.523643 -1.704018
v -0.664875 4.523643 1.605150
v 1.444597 4.523643 -0.965249
v -0.965249 4.523643 1.444597
v 1.605150 4.523643 -0.664875
v -1.228528 4.523643 1.228529
v 1.704018 4.523643 -0.338950
v -1.444597 4.523643 0.965249
v 1.737402 4.523643 0.000000
vn 0.0980 -0.0000 -0.9952
vn 0.2903 -0.0000 -0.9569
vn 0.4714 -0.0000 -0.8819
vn 0.6344 -0.0000 -0.7730
vn 0.7730 -0.0000 -0.6344
vn 0.8819 -0.0000 -0.4714
vn 0.9569 -0.0000 -0.2903
vn 0.9952 -0.0000 -0.0980
vn 0.9952 -0.0000 0.0980
vn 0.9569 -0.0000 0.2903
vn 0.8819 -0.0000 0.4714
vn 0.7730 -0.0000 0.6344
vn 0.6344 -0.0000 0.7730
vn 0.4714 -0.0000 0.8819
vn 0.2903 -0.0000 0.9569
vn 0.0980 -0.0000 0.9952
vn -0.0980 -0.0000 0.9952
vn -0.2903 -0.0000 0.9569
vn -0.4714 -0.0000 0.8819
vn -0.6344 -0.0000 0.7730
vn -0.7730 -0.0000 0.6344
vn -0.8819 -0.0000 0.4714
vn -0.9569 -0.0000 0.2903
vn -0.9952 -0.0000 0.0980
vn -0.9952 -0.0000 -0.0980
vn -0.9569 -0.0000 -0.2903
vn -0.8819 -0.0000 -0.4714
vn -0.7730 -0.0000 -0.6344
vn -0.6344 -0.0000 -0.7730
vn -0.4714 -0.0000 -0.8819
vn 0.0556 -0.9962 -0.0677
vn -0.2903 -0.0000 -0.9569
vn -0.0980 -0.0000 -0.9952
vn -0.0000 -1.0000 -0.0000
vn 0.0556 -0.9962 0.0677
vn -0.0773 -0.9962 0.0413
vn -0.0254 -0.9962 -0.0838
vn 0.0872 -0.9962 0.0086
vn -0.0254 -0.9962 0.0838
vn -0.0773 -0.9962 -0.0413
vn 0.0677 -0.9962 -0.0556
vn 0.0413 -0.9962 0.0773
vn -0.0838 -0.9962 0.0254
vn 0.0086 -0.9962 -0.0872
vn -0.0086 -0.9962 -0.0872
vn 0.0838 -0.9962 0.0254
vn -0.0413 -0.9962 0.0773
vn -0.0677 -0.9962 -0.0556
vn 0.0773 -0.9962 -0.0413
vn 0.0254 -0.9962 0.0838
vn -0.0872 -0.9962 0.0086
vn 0.0254 -0.9962 -0.0838
vn 0.0773 -0.9962 0.0413
vn -0.0556 -0.9962 0.0677
vn -0.0556 -0.9962 -0.0677
vn 0.0838 -0.9962 -0.0254
vn 0.0086 -0.9962 0.0872
vn -0.0872 -0.9962 -0.0086
vn 0.0413 -0.9962 -0.0773
vn 0.0677 -0.9962 0.0556
vn -0.0677 -0.9962 0.0556
vn -0.0413 -0.9962 -0.0773
vn 0.0872 -0.9962 -0.0086
vn -0.0086 -0.9962 0.0872
vn -0.0838 -0.9962 -0.0254
vn 0.9136 0.3965 0.0900
vn -0.8096 0.3965 0.4328
vn 0.9136 0.3965 -0.0900
vn -0.7096 0.3965 0.5824
vn 0.8785 0.3965 -0.2665
vn -0.5824 0.3965 0.7096
vn 0.8096 0.3965 -0.4328
vn -0.4328 0.3965 0.8096
vn -0.0900 0.3965 -0.9136
vn 0.7096 0.3965 -0.5824
vn -0.2665 0.3965 0.8785
vn -0.2665 0.3965 -0.8785
vn 0.5824 0.3965 -0.7096
vn -0.0900 0.3965 0.9136
vn -0.4328 0.3965 -0.8096
vn 0.4328 0.3965 -0.8096
vn 0.0900 0.3965 0.9136
vn -0.5824 0.3965 -0.7096
vn 0.2665 0.3965 -0.8785
vn 0.2665 0.3965 0.8785
vn -0.7096 0.3965 -0.5824
vn 0.0900 0.3965 -0.9136
vn 0.4328 0.3965 0.8096
vn -0.8096 0.3965 -0.4328
vn 0.5824 0.3965 0.7096
vn -0.8785 0.3965 -0.2665
vn 0.7096 0.3965 0.5824
vn -0.9136 0.3965 -0.0900
vn 0.8096 0.3965 0.4328
vn -0.9136 0.3965 0.0900
vn 0.8785 0.3965 0.2665
vn -0.8785 0.3965 0.2665
vn -0.8560 0.4471 0.2597
vn -0.0000 1.0000 -0.0000
vn 0.8560 0.4471 0.2597
vn -0.8902 0.4471 0.0877
vn 0.7889 0.4471 0.4217
vn -0.8902 0.4471 -0.0877
vn 0.6914 0.4471 0.5675
vn -0.8560 0.4471 -0.2597
vn 0.5675 0.4471 0.6914
vn -0.7889 0.4471 -0.4217
vn 0.4217 0.4471 0.7889
vn 0.0877 0.4471 -0.8902
vn -0.6914 0.4471 -0.5675
vn 0.2597 0.4471 0.8560
vn 0.2597 0.4471 -0.8560
vn -0.5675 0.4471 -0.6914
vn 0.0877 0.4471 0.8902
vn 0.4217 0.4471 -0.7889
vn -0.4217 0.4471 -0.7889
vn -0.0877 0.4471 0.8902
vn 0.5675 0.4471 -0.6914
vn -0.2597 0.4471 -0.8560
vn -0.2597 0.4471 0.8560
vn 0.6914 0.4471 -0.5675
vn -0.0877 0.4471 -0.8902
vn -0.4217 0.4471 0.7889
vn 0.7889 0.4471 -0.4217
vn -0.5675 0.4471 0.6914
vn 0.8560 0.4471 -0.2597
vn -0.6914 0.4471 0.5675
vn 0.8902 0.4471 -0.0877
vn -0.7889 0.4471 0.4217
vn 0.8902 0.4471 0.0877
vt 1.000000 0.500000
vt 1.000000 1.000000
vt 0.968750 1.000000
vt 0.968750 0.500000
vt 0.937500 1.000000
vt 0.937500 0.500000
vt 0.906250 1.000000
vt 0.906250 0.500000
vt 0.875000 1.000000
vt 0.875000 0.500000
vt 0.843750 1.000000
vt 0.843750 0.500000
vt 0.812500 1.000000
vt 0.812500 0.500000
vt 0.781250 1.000000
vt 0.781250 0.500000
vt 0.750000 1.000000
vt 0.750000 0.500000
vt 0.718750 1.000000
vt 0.718750 0.500000
vt 0.687500 1.000000
vt 0.687500 0.500000
vt 0.656250 1.000000
vt 0.656250 0.500000
vt 0.625000 1.000000
vt 0.625000 0.500000
vt 0.593750 1.000000
vt 0.593750 0.500000
vt 0.562500 1.000000
vt 0.562500 0.500000
vt 0.531250 1.000000
vt 0.531250 0.500000
vt 0.500000 1.000000
vt 0.500000 0.500000
vt 0.468750 1.000000
vt 0.468750 0.500000
vt 0.437500 1.000000
vt 0.437500 0.500000
vt 0.406250 1.000000
vt 0.406250 0.500000
vt 0.375000 1.000000
vt 0.375000 0.500000
vt 0.343750 1.000000
vt 0.343750 0.500000
vt 0.312500 1.000000
vt 0.312500 0.500000
vt 0.281250 1.000000
vt 0.281250 0.500000
vt 0.250000 1.000000
vt 0.250000 0.500000
vt 0.218750 1.000000
vt 0.218750 0.500000
vt 0.187500 1.000000
vt 0.187500 0.500000
vt 0.156250 1.000000
vt 0.156250 0.500000
vt 0.125000 1.000000
vt 0.125000 0.500000
vt 0.093750 1.000000
vt 0.093750 0.500000
vt 0.062500 1.000000
vt 0.062500 0.500000
vt 0.031250 1.000000
vt 0.031250 0.500000
vt 0.000000 1.000000
vt 0.000000 0.500000
vt 0.750000 0.490000
vt 0.796822 0.485388
vt 0.841844 0.471731
vt 0.883337 0.449553
vt 0.919706 0.419706
vt 0.949553 0.383337
vt 0.971731 0.341844
vt 0.985388 0.296822
vt 0.990000 0.250000
vt 0.985388 0.203178
vt 0.971731 0.158156
vt 0.949553 0.116663
vt 0.919706 0.080294
vt 0.883337 0.050447
vt 0.841844 0.028269
vt 0.796822 0.014612
vt 0.750000 0.010000
vt 0.703178 0.014612
vt 0.658156 0.028269
vt 0.616663 0.050447
vt 0.580294 0.080294
vt 0.550447 0.116663
vt 0.528269 0.158156
vt 0.514612 0.203178
vt 0.510000 0.250000
vt 0.514612 0.296822
vt 0.528269 0.341844
vt 0.550447 0.383337
vt 0.580294 0.419706
vt 0.616663 0.449553
vt 0.658156 0.471731
vt 0.703178 0.485388
vt 0.562500 1.000000
vt 0.406250 1.000000
vt 0.125000 1.000000
vt 0.531250 1.000000
vt 0.218750 1.000000
vt 0.296822 0.485388
vt 0.250000 0.490000
vt 0.203178 0.485388
vt 0.158156 0.471731
vt 0.116663 0.449553
vt 0.080294 0.419706
vt 0.050447 0.383337
vt 0.028269 0.341844
vt 0.014612 0.296822
vt 0.010000 0.250000
vt 0.014612 0.203178
vt 0.028269 0.158156
vt 0.050447 0.116663
vt 0.080294 0.080294
vt 0.116663 0.050447
vt 0.158156 0.028269
vt 0.203178 0.014612
vt 0.250000 0.010000
vt 0.296822 0.014612
vt 0.341844 0.028269
vt 0.383337 0.050447
vt 0.419706 0.080294
vt 0.449553 0.116663
vt 0.471731 0.158156
vt 0.485388 0.203178
vt 0.490000 0.250000
vt 0.485388 0.296822
vt 0.471731 0.341844
vt 0.449553 0.383337
vt 0.419706 0.419706
vt 0.383337 0.449553
vt 0.341844 0.471731
s 0
f 1/1/1 2/2/1 4/3/1 3/4/1
f 3/4/2 4/3/2 6/5/2 5/6/2
f 5/6/3 6/5/3 8/7/3 7/8/3
f 7/8/4 8/7/4 10/9/4 9/10/4
f 9/10/5 10/9/5 12/11/5 11/12/5
f 11/12/6 12/11/6 14/13/6 13/14/6
f 13/14/7 14/13/7 16/15/7 15/16/7
f 15/16/8 16/15/8 18/17/8 17/18/8
f 17/18/9 18/17/9 20/19/9 19/20/9
f 19/20/10 20/19/10 22/21/10 21/22/10
f 21/22/11 22/21/11 24/23/11 23/24/11
f 23/24/12 24/23/12 26/25/12 25/26/12
f 25/26/13 26/25/13 28/27/13 27/28/13
f 27/28/14 28/27/14 30/29/14 29/30/14
f 29/30/15 30/29/15 32/31/15 31/32/15
f 31/32/16 32/31/16 34/33/16 33/34/16
f 33/34/17 34/33/17 36/35/17 35/36/17
f 35/36/18 36/35/18 38/37/18 37/38/18
f 37/38/19 38/37/19 40/39/19 39/40/19
f 39/40/20 40/39/20 42/41/20 41/42/20
f 41/42/21 42/41/21 44/43/21 43/44/21
f 43/44/22 44/43/22 46/45/22 45/46/22
f 45/46/23 46/45/23 48/47/23 47/48/23
f 47/48/24 48/47/24 50/49/24 49/50/24
f 49/50/25 50/49/25 52/51/25 51/52/25
f 51/52/26 52/51/26 54/53/26 53/54/26
f 53/54/27 54/53/27 56/55/27 55/56/27
f 55/56/28 56/55/28 58/57/28 57/58/28
f 57/58/29 58/57/29 60/59/29 59/60/29
f 59/60/30 60/59/30 62/61/30 61/62/30
f 10/9/31 8/7/31 68/7/31 69/9/31
f 61/62/32 62/61/32 64/63/32 63/64/32
f 63/64/33 64/63/33 2/65/33 1/66/33
f 1/67/34 3/68/34 5/69/34 7/70/34 9/71/34 11/72/34 13/73/34 15/74/34 17/75/34 19/76/34 21/77/34 23/78/34 25/79/34 27/80/34 29/81/34 31/82/34 33/83/34 35/84/34 37/85/34 39/86/34 41/87/34 43/88/34 45/89/34 47/90/34 49/91/34 51/92/34 53/93/34 55/94/34 57/95/34 59/96/34 61/97/34 63/98/34
f 28/27/35 26/25/35 77/25/35 78/27/35
f 46/45/36 44/43/36 86/43/36 87/45/36
f 64/63/37 62/61/37 95/61/37 96/63/37
f 20/19/38 18/17/38 73/17/38 74/19/38
f 38/37/39 36/35/39 82/35/39 83/37/39
f 56/55/40 54/53/40 91/53/40 92/55/40
f 12/11/41 10/9/41 69/9/41 70/11/41
f 30/29/42 28/27/42 78/27/42 79/29/42
f 48/47/43 46/45/43 87/45/43 88/47/43
f 4/3/44 2/2/44 66/2/44 65/3/44
f 2/65/45 64/63/45 96/63/45 66/65/45
f 22/21/46 20/19/46 74/19/46 75/21/46
f 40/39/47 38/37/47 83/37/47 84/39/47
f 58/57/48 56/55/48 92/55/48 93/57/48
f 14/13/49 12/11/49 70/11/49 71/13/49
f 32/31/50 30/29/50 79/29/50 80/31/50
f 50/49/51 48/47/51 88/47/51 89/49/51
f 6/5/52 4/3/52 65/3/52 67/5/52
f 24/23/53 22/21/53 75/21/53 76/23/53
f 42/41/54 40/39/54 84/39/54 85/41/54
f 60/59/55 58/57/55 93/57/55 94/59/55
f 16/15/56 14/13/56 71/13/56 72/15/56
f 34/33/57 32/31/57 80/31/57 81/33/57
f 52/51/58 50/49/58 89/49/58 90/51/58
f 8/7/59 6/5/59 67/5/59 68/7/59
f 26/25/60 24/23/60 76/23/60 77/25/60
f 44/43/61 42/41/61 85/41/61 86/43/61
f 62/61/62 60/59/62 94/59/62 95/61/62
f 18/17/63 16/15/63 72/15/63 73/17/63
f 36/35/64 34/33/64 81/33/64 82/35/64
f 54/53/65 52/51/65 90/51/65 91/53/65
f 107/55/34 105/53/34 170/53/34 172/55/34
f 122/11/34 119/9/34 183/9/34 186/11/34
f 108/99/34 106/27/34 171/27/34 173/99/34
f 109/65/34 120/63/34 184/63/34 163/65/34
f 110/3/34 109/2/34 163/2/34 174/3/34
f 123/100/34 121/37/34 185/37/34 187/100/34
f 111/101/34 107/55/34 172/55/34 175/101/34
f 124/13/34 122/11/34 186/11/34 188/13/34
f 112/102/34 108/99/34 173/99/34 176/102/34
f 125/41/34 123/100/34 187/100/34 189/41/34
f 113/5/34 110/3/34 174/3/34 177/5/34
f 98/47/34 97/45/34 161/45/34 164/47/34
f 126/15/34 124/13/34 188/13/34 190/15/34
f 114/59/34 111/101/34 175/101/34 178/59/34
f 100/21/34 99/19/34 162/19/34 165/21/34
f 127/43/34 125/41/34 189/41/34 191/43/34
f 115/33/34 112/102/34 176/102/34 179/33/34
f 101/49/34 98/47/34 164/47/34 166/49/34
f 128/17/34 126/15/34 190/15/34 192/17/34
f 116/7/34 113/5/34 177/5/34 180/7/34
f 102/23/34 100/21/34 165/21/34 167/23/34
f 97/45/34 127/43/34 191/43/34 161/45/34
f 117/61/34 114/59/34 178/59/34 181/61/34
f 103/103/34 101/49/34 166/49/34 168/103/34
f 99/19/34 128/17/34 192/17/34 162/19/34
f 118/35/34 115/33/34 179/33/34 182/35/34
f 104/25/34 102/23/34 167/23/34 169/25/34
f 119/9/34 116/7/34 180/7/34 183/9/34
f 105/53/34 103/103/34 168/103/34 170/53/34
f 120/63/34 117/61/34 181/61/34 184/63/34
f 106/27/34 104/25/34 169/25/34 171/27/34
f 121/37/34 118/35/34 182/35/34 185/37/34
f 74/19/66 73/17/66 128/17/66 99/19/66
f 87/45/67 86/43/67 127/43/67 97/45/67
f 73/17/68 72/15/68 126/15/68 128/17/68
f 86/43/69 85/41/69 125/41/69 127/43/69
f 72/15/70 71/13/70 124/13/70 126/15/70
f 85/41/71 84/39/71 123/100/71 125/41/71
f 71/13/72 70/11/72 122/11/72 124/13/72
f 84/39/73 83/37/73 121/37/73 123/100/73
f 66/65/74 96/63/74 120/63/74 109/65/74
f 70/11/75 69/9/75 119/9/75 122/11/75
f 83/37/76 82/35/76 118/35/76 121/37/76
f 96/63/77 95/61/77 117/61/77 120/63/77
f 69/9/78 68/7/78 116/7/78 119/9/78
f 82/35/79 81/33/79 115/33/79 118/35/79
f 95/61/80 94/59/80 114/59/80 117/61/80
f 68/7/81 67/5/81 113/5/81 116/7/81
f 81/33/82 80/31/82 112/102/82 115/33/82
f 94/59/83 93/57/83 111/101/83 114/59/83
f 67/5/84 65/3/84 110/3/84 113/5/84
f 80/31/85 79/29/85 108/99/85 112/102/85
f 93/57/86 92/55/86 107/55/86 111/101/86
f 65/3/87 66/2/87 109/2/87 110/3/87
f 79/29/88 78/27/88 106/27/88 108/99/88
f 92/55/89 91/53/89 105/53/89 107/55/89
f 78/27/90 77/25/90 104/25/90 106/27/90
f 91/53/91 90/51/91 103/103/91 105/53/91
f 77/25/92 76/23/92 102/23/92 104/25/92
f 90/51/93 89/49/93 101/49/93 103/103/93
f 76/23/94 75/21/94 100/21/94 102/23/94
f 89/49/95 88/47/95 98/47/95 101/49/95
f 75/21/96 74/19/96 99/19/96 100/21/96
f 88/47/97 87/45/97 97/45/97 98/47/97
f 164/47/98 161/45/98 151/45/98 152/47/98
f 129/104/99 130/105/99 160/106/99 159/107/99 158/108/99 157/109/99 156/110/99 155/111/99 154/112/99 153/113/99 152/114/99 151/115/99 150/116/99 149/117/99 148/118/99 147/119/99 146/120/99 145/121/99 144/122/99 143/123/99 142/124/99 141/125/99 140/126/99 139/127/99 138/128/99 137/129/99 136/130/99 135/131/99 134/132/99 133/133/99 132/134/99 131/135/99
f 165/21/100 162/19/100 138/19/100 139/21/100
f 166/49/101 164/47/101 152/47/101 153/49/101
f 167/23/102 165/21/102 139/21/102 140/23/102
f 168/103/103 166/49/103 153/49/103 154/51/103
f 169/25/104 167/23/104 140/23/104 141/25/104
f 170/53/105 168/103/105 154/51/105 155/53/105
f 171/27/106 169/25/106 141/25/106 142/27/106
f 172/55/107 170/53/107 155/53/107 156/55/107
f 173/99/108 171/27/108 142/27/108 143/29/108
f 174/3/109 163/2/109 130/2/109 129/3/109
f 175/101/110 172/55/110 156/55/110 157/57/110
f 176/102/111 173/99/111 143/29/111 144/31/111
f 177/5/112 174/3/112 129/3/112 131/5/112
f 178/59/113 175/101/113 157/57/113 158/59/113
f 179/33/114 176/102/114 144/31/114 145/33/114
f 180/7/115 177/5/115 131/5/115 132/7/115
f 181/61/116 178/59/116 158/59/116 159/61/116
f 182/35/117 179/33/117 145/33/117 146/35/117
f 183/9/118 180/7/118 132/7/118 133/9/118
f 184/63/119 181/61/119 159/61/119 160/63/119
f 185/37/120 182/35/120 146/35/120 147/37/120
f 186/11/121 183/9/121 133/9/121 134/11/121
f 163/65/122 184/63/122 160/63/122 130/65/122
f 187/100/123 185/37/123 147/37/123 148/39/123
f 188/13/124 186/11/124 134/11/124 135/13/124
f 189/41/125 187/100/125 148/39/125 149/41/125
f 190/15/126 188/13/126 135/13/126 136/15/126
f 191/43/127 189/41/127 149/41/127 150/43/127
f 192/17/128 190/15/128 136/15/128 137/17/128
f 161/45/129 191/43/129 150/43/129 151/45/129
f 162/19/130 192/17/130 137/17/130 138/19/130
