# Blender 4.3.2
# www.blender.org
mtllib Tree1.mtl
o Cylinder
v 0.000000 0.000000 -1.000000
v 0.000000 2.000000 -1.000000
v 0.195090 0.000000 -0.980785
v 0.195090 2.000000 -0.980785
v 0.382683 0.000000 -0.923880
v 0.382683 2.000000 -0.923880
v 0.555570 0.000000 -0.831470
v 0.555570 2.000000 -0.831470
v 0.707107 0.000000 -0.707107
v 0.707107 2.000000 -0.707107
v 0.831470 0.000000 -0.555570
v 0.831470 2.000000 -0.555570
v 0.923880 0.000000 -0.382683
v 0.923880 2.000000 -0.382683
v 0.980785 0.000000 -0.195090
v 0.980785 2.000000 -0.195090
v 1.000000 0.000000 0.000000
v 1.000000 2.000000 0.000000
v 0.980785 0.000000 0.195090
v 0.980785 2.000000 0.195090
v 0.923880 0.000000 0.382683
v 0.923880 2.000000 0.382683
v 0.831470 0.000000 0.555570
v 0.831470 2.000000 0.555570
v 0.707107 0.000000 0.707107
v 0.707107 2.000000 0.707107
v 0.555570 0.000000 0.831470
v 0.555570 2.000000 0.831470
v 0.382683 0.000000 0.923880
v 0.382683 2.000000 0.923880
v 0.195090 0.000000 0.980785
v 0.195090 2.000000 0.980785
v 0.000000 0.000000 1.000000
v 0.000000 2.000000 1.000000
v -0.195090 0.000000 0.980785
v -0.195090 2.000000 0.980785
v -0.382683 0.000000 0.923880
v -0.382683 2.000000 0.923880
v -0.555570 0.000000 0.831470
v -0.555570 2.000000 0.831470
v -0.707107 0.000000 0.707107
v -0.707107 2.000000 0.707107
v -0.831470 0.000000 0.555570
v -0.831470 2.000000 0.555570
v -0.923880 0.000000 0.382683
v -0.923880 2.000000 0.382683
v -0.980785 0.000000 0.195090
v -0.980785 2.000000 0.195090
v -1.000000 0.000000 0.000000
v -1.000000 2.000000 0.000000
v -0.980785 0.000000 -0.195090
v -0.980785 2.000000 -0.195090
v -0.923880 0.000000 -0.382683
v -0.923880 2.000000 -0.382683
v -0.831470 0.000000 -0.555570
v -0.831470 2.000000 -0.555570
v -0.707107 0.000000 -0.707107
v -0.707107 2.000000 -0.707107
v -0.555570 0.000000 -0.831470
v -0.555570 2.000000 -0.831470
v -0.382683 0.000000 -0.923880
v -0.382683 2.000000 -0.923880
v -0.195090 0.000000 -0.980785
v -0.195090 2.000000 -0.980785
v 0.430290 2.105527 -2.163216
v -0.000000 2.105527 -2.205596
v 0.844045 2.105527 -2.037705
v 1.225364 2.105527 -1.833886
v 1.559592 2.105527 -1.559592
v 1.833886 2.105527 -1.225364
v 2.037705 2.105527 -0.844045
v 2.163216 2.105527 -0.430291
v 2.205596 2.105527 0.000000
v 2.163216 2.105527 0.430291
v 2.037705 2.105527 0.844045
v 1.833886 2.105527 1.225364
v 1.559592 2.105527 1.559592
v 1.225364 2.105527 1.833886
v 0.844045 2.105527 2.037705
v 0.430290 2.105527 2.163216
v -0.000000 2.105527 2.205596
v -0.430291 2.105527 2.163216
v -0.844045 2.105527 2.037705
v -1.225364 2.105527 1.833886
v -1.559592 2.105527 1.559592
v -1.833886 2.105527 1.225364
v -2.037705 2.105527 0.844045
v -2.163216 2.105527 0.430291
v -2.205596 2.105527 0.000000
v -2.163216 2.105527 -0.430291
v -2.037705 2.105527 -0.844045
v -1.833886 2.105527 -1.225364
v -1.559592 2.105527 -1.559592
v -1.225364 2.105527 -1.833886
v -0.844045 2.105527 -2.037705
v -0.430291 2.105527 -2.163216
v 0.004303 7.924118 -0.021632
v -0.000000 7.924118 -0.022056
v 0.008440 7.924118 -0.020377
v 0.012254 7.924118 -0.018339
v 0.015596 7.924118 -0.015596
v 0.018339 7.924118 -0.012254
v 0.020377 7.924118 -0.008440
v 0.021632 7.924118 -0.004303
v 0.022056 7.924118 0.000000
v 0.021632 7.924118 0.004303
v 0.020377 7.924118 0.008440
v 0.018339 7.924118 0.012254
v 0.015596 7.924118 0.015596
v 0.012254 7.924118 0.018339
v 0.008440 7.924118 0.020377
v 0.004303 7.924118 0.021632
v -0.000000 7.924118 0.022056
v -0.004303 7.924118 0.021632
v -0.008440 7.924118 0.020377
v -0.012254 7.924118 0.018339
v -0.015596 7.924118 0.015596
v -0.018339 7.924118 0.012254
v -0.020377 7.924118 0.008440
v -0.021632 7.924118 0.004303
v -0.022056 7.924118 0.000000
v -0.021632 7.924118 -0.004303
v -0.020377 7.924118 -0.008440
v -0.018339 7.924118 -0.012254
v -0.015596 7.924118 -0.015596
v -0.012254 7.924118 -0.018339
v -0.008440 7.924118 -0.020377
v -0.004303 7.924118 -0.021632
vn 0.0980 -0.0000 -0.9952
vn 0.2903 -0.0000 -0.9569
vn 0.4714 -0.0000 -0.8819
vn 0.6344 -0.0000 -0.7730
vn 0.7730 -0.0000 -0.6344
vn 0.8819 -0.0000 -0.4714
vn 0.9569 -0.0000 -0.2903
vn 0.9952 -0.0000 -0.0980
vn 0.9952 -0.0000 0.0980
vn 0.9569 -0.0000 0.2903
vn 0.8819 -0.0000 0.4714
vn 0.7730 -0.0000 0.6344
vn 0.6344 -0.0000 0.7730
vn 0.4714 -0.0000 0.8819
vn 0.2903 -0.0000 0.9569
vn 0.0980 -0.0000 0.9952
vn -0.0980 -0.0000 0.9952
vn -0.2903 -0.0000 0.9569
vn -0.4714 -0.0000 0.8819
vn -0.6344 -0.0000 0.7730
vn -0.7730 -0.0000 0.6344
vn -0.8819 -0.0000 0.4714
vn -0.9569 -0.0000 0.2903
vn -0.9952 -0.0000 0.0980
vn -0.9952 -0.0000 -0.0980
vn -0.9569 -0.0000 -0.2903
vn -0.8819 -0.0000 -0.4714
vn -0.7730 -0.0000 -0.6344
vn -0.6344 -0.0000 -0.7730
vn -0.4714 -0.0000 -0.8819
vn 0.0556 -0.9962 -0.0677
vn -0.2903 -0.0000 -0.9569
vn -0.0980 -0.0000 -0.9952
vn -0.0000 -1.0000 -0.0000
vn -0.8965 0.3499 0.2719
vn 0.0556 -0.9962 0.0677
vn -0.0773 -0.9962 0.0413
vn -0.0254 -0.9962 -0.0838
vn 0.0872 -0.9962 0.0086
vn -0.0254 -0.9962 0.0838
vn -0.0773 -0.9962 -0.0413
vn 0.0677 -0.9962 -0.0556
vn 0.0413 -0.9962 0.0773
vn -0.0838 -0.9962 0.0254
vn 0.0086 -0.9962 -0.0872
vn -0.0086 -0.9962 -0.0872
vn 0.0838 -0.9962 0.0254
vn -0.0413 -0.9962 0.0773
vn -0.0677 -0.9962 -0.0556
vn 0.0773 -0.9962 -0.0413
vn 0.0254 -0.9962 0.0838
vn -0.0872 -0.9962 0.0086
vn 0.0254 -0.9962 -0.0838
vn 0.0773 -0.9962 0.0413
vn -0.0556 -0.9962 0.0677
vn -0.0556 -0.9962 -0.0677
vn 0.0838 -0.9962 -0.0254
vn 0.0086 -0.9962 0.0872
vn -0.0872 -0.9962 -0.0086
vn 0.0413 -0.9962 -0.0773
vn 0.0677 -0.9962 0.0556
vn -0.0677 -0.9962 0.0556
vn -0.0413 -0.9962 -0.0773
vn 0.0872 -0.9962 -0.0086
vn -0.0086 -0.9962 0.0872
vn -0.0838 -0.9962 -0.0254
vn -0.0000 1.0000 -0.0000
vn 0.8965 0.3499 0.2719
vn -0.9323 0.3499 0.0918
vn 0.8262 0.3499 0.4416
vn -0.9323 0.3499 -0.0918
vn 0.7242 0.3499 0.5943
vn -0.8965 0.3499 -0.2719
vn 0.5943 0.3499 0.7242
vn -0.8262 0.3499 -0.4416
vn 0.4416 0.3499 0.8262
vn 0.0918 0.3499 -0.9323
vn -0.7242 0.3499 -0.5943
vn 0.2719 0.3499 0.8965
vn 0.2719 0.3499 -0.8965
vn -0.5943 0.3499 -0.7242
vn 0.0918 0.3499 0.9323
vn 0.4416 0.3499 -0.8262
vn -0.4416 0.3499 -0.8262
vn -0.0918 0.3499 0.9323
vn 0.5943 0.3499 -0.7242
vn -0.2719 0.3499 -0.8965
vn -0.2719 0.3499 0.8965
vn 0.7242 0.3499 -0.5943
vn -0.0918 0.3499 -0.9323
vn -0.4416 0.3499 0.8262
vn 0.8262 0.3499 -0.4416
vn -0.5943 0.3499 0.7242
vn 0.8965 0.3499 -0.2719
vn -0.7242 0.3499 0.5943
vn 0.9323 0.3499 -0.0918
vn -0.8262 0.3499 0.4416
vn 0.9323 0.3499 0.0918
vt 1.000000 0.500000
vt 1.000000 1.000000
vt 0.968750 1.000000
vt 0.968750 0.500000
vt 0.937500 1.000000
vt 0.937500 0.500000
vt 0.906250 1.000000
vt 0.906250 0.500000
vt 0.875000 1.000000
vt 0.875000 0.500000
vt 0.843750 1.000000
vt 0.843750 0.500000
vt 0.812500 1.000000
vt 0.812500 0.500000
vt 0.781250 1.000000
vt 0.781250 0.500000
vt 0.750000 1.000000
vt 0.750000 0.500000
vt 0.718750 1.000000
vt 0.718750 0.500000
vt 0.687500 1.000000
vt 0.687500 0.500000
vt 0.656250 1.000000
vt 0.656250 0.500000
vt 0.625000 1.000000
vt 0.625000 0.500000
vt 0.593750 1.000000
vt 0.593750 0.500000
vt 0.562500 1.000000
vt 0.562500 0.500000
vt 0.531250 1.000000
vt 0.531250 0.500000
vt 0.500000 1.000000
vt 0.500000 0.500000
vt 0.468750 1.000000
vt 0.468750 0.500000
vt 0.437500 1.000000
vt 0.437500 0.500000
vt 0.406250 1.000000
vt 0.406250 0.500000
vt 0.375000 1.000000
vt 0.375000 0.500000
vt 0.343750 1.000000
vt 0.343750 0.500000
vt 0.312500 1.000000
vt 0.312500 0.500000
vt 0.281250 1.000000
vt 0.281250 0.500000
vt 0.250000 1.000000
vt 0.250000 0.500000
vt 0.218750 1.000000
vt 0.218750 0.500000
vt 0.187500 1.000000
vt 0.187500 0.500000
vt 0.156250 1.000000
vt 0.156250 0.500000
vt 0.125000 1.000000
vt 0.125000 0.500000
vt 0.093750 1.000000
vt 0.093750 0.500000
vt 0.062500 1.000000
vt 0.062500 0.500000
vt 0.031250 1.000000
vt 0.031250 0.500000
vt 0.000000 1.000000
vt 0.000000 0.500000
vt 0.750000 0.490000
vt 0.796822 0.485388
vt 0.841844 0.471731
vt 0.883337 0.449553
vt 0.919706 0.419706
vt 0.949553 0.383337
vt 0.971731 0.341844
vt 0.985388 0.296822
vt 0.990000 0.250000
vt 0.985388 0.203178
vt 0.971731 0.158156
vt 0.949553 0.116663
vt 0.919706 0.080294
vt 0.883337 0.050447
vt 0.841844 0.028269
vt 0.796822 0.014612
vt 0.750000 0.010000
vt 0.703178 0.014612
vt 0.658156 0.028269
vt 0.616663 0.050447
vt 0.580294 0.080294
vt 0.550447 0.116663
vt 0.528269 0.158156
vt 0.514612 0.203178
vt 0.510000 0.250000
vt 0.514612 0.296822
vt 0.528269 0.341844
vt 0.550447 0.383337
vt 0.580294 0.419706
vt 0.616663 0.449553
vt 0.658156 0.471731
vt 0.703178 0.485388
vt 0.296822 0.485388
vt 0.250000 0.490000
vt 0.203178 0.485388
vt 0.158156 0.471731
vt 0.116663 0.449553
vt 0.080294 0.419706
vt 0.050447 0.383337
vt 0.028269 0.341844
vt 0.014612 0.296822
vt 0.010000 0.250000
vt 0.014612 0.203178
vt 0.028269 0.158156
vt 0.050447 0.116663
vt 0.080294 0.080294
vt 0.116663 0.050447
vt 0.158156 0.028269
vt 0.203178 0.014612
vt 0.250000 0.010000
vt 0.296822 0.014612
vt 0.341844 0.028269
vt 0.383337 0.050447
vt 0.419706 0.080294
vt 0.449553 0.116663
vt 0.471731 0.158156
vt 0.485388 0.203178
vt 0.490000 0.250000
vt 0.485388 0.296822
vt 0.471731 0.341844
vt 0.449553 0.383337
vt 0.419706 0.419706
vt 0.383337 0.449553
vt 0.341844 0.471731
s 0
f 1/1/1 2/2/1 4/3/1 3/4/1
f 3/4/2 4/3/2 6/5/2 5/6/2
f 5/6/3 6/5/3 8/7/3 7/8/3
f 7/8/4 8/7/4 10/9/4 9/10/4
f 9/10/5 10/9/5 12/11/5 11/12/5
f 11/12/6 12/11/6 14/13/6 13/14/6
f 13/14/7 14/13/7 16/15/7 15/16/7
f 15/16/8 16/15/8 18/17/8 17/18/8
f 17/18/9 18/17/9 20/19/9 19/20/9
f 19/20/10 20/19/10 22/21/10 21/22/10
f 21/22/11 22/21/11 24/23/11 23/24/11
f 23/24/12 24/23/12 26/25/12 25/26/12
f 25/26/13 26/25/13 28/27/13 27/28/13
f 27/28/14 28/27/14 30/29/14 29/30/14
f 29/30/15 30/29/15 32/31/15 31/32/15
f 31/32/16 32/31/16 34/33/16 33/34/16
f 33/34/17 34/33/17 36/35/17 35/36/17
f 35/36/18 36/35/18 38/37/18 37/38/18
f 37/38/19 38/37/19 40/39/19 39/40/19
f 39/40/20 40/39/20 42/41/20 41/42/20
f 41/42/21 42/41/21 44/43/21 43/44/21
f 43/44/22 44/43/22 46/45/22 45/46/22
f 45/46/23 46/45/23 48/47/23 47/48/23
f 47/48/24 48/47/24 50/49/24 49/50/24
f 49/50/25 50/49/25 52/51/25 51/52/25
f 51/52/26 52/51/26 54/53/26 53/54/26
f 53/54/27 54/53/27 56/55/27 55/56/27
f 55/56/28 56/55/28 58/57/28 57/58/28
f 57/58/29 58/57/29 60/59/29 59/60/29
f 59/60/30 60/59/30 62/61/30 61/62/30
f 10/9/31 8/7/31 68/7/31 69/9/31
f 61/62/32 62/61/32 64/63/32 63/64/32
f 63/64/33 64/63/33 2/65/33 1/66/33
f 1/67/34 3/68/34 5/69/34 7/70/34 9/71/34 11/72/34 13/73/34 15/74/34 17/75/34 19/76/34 21/77/34 23/78/34 25/79/34 27/80/34 29/81/34 31/82/34 33/83/34 35/84/34 37/85/34 39/86/34 41/87/34 43/88/34 45/89/34 47/90/34 49/91/34 51/92/34 53/93/34 55/94/34 57/95/34 59/96/34 61/97/34 63/98/34
f 88/47/35 87/45/35 119/45/35 120/47/35
f 28/27/36 26/25/36 77/25/36 78/27/36
f 46/45/37 44/43/37 86/43/37 87/45/37
f 64/63/38 62/61/38 95/61/38 96/63/38
f 20/19/39 18/17/39 73/17/39 74/19/39
f 38/37/40 36/35/40 82/35/40 83/37/40
f 56/55/41 54/53/41 91/53/41 92/55/41
f 12/11/42 10/9/42 69/9/42 70/11/42
f 30/29/43 28/27/43 78/27/43 79/29/43
f 48/47/44 46/45/44 87/45/44 88/47/44
f 4/3/45 2/2/45 66/2/45 65/3/45
f 2/65/46 64/63/46 96/63/46 66/65/46
f 22/21/47 20/19/47 74/19/47 75/21/47
f 40/39/48 38/37/48 83/37/48 84/39/48
f 58/57/49 56/55/49 92/55/49 93/57/49
f 14/13/50 12/11/50 70/11/50 71/13/50
f 32/31/51 30/29/51 79/29/51 80/31/51
f 50/49/52 48/47/52 88/47/52 89/49/52
f 6/5/53 4/3/53 65/3/53 67/5/53
f 24/23/54 22/21/54 75/21/54 76/23/54
f 42/41/55 40/39/55 84/39/55 85/41/55
f 60/59/56 58/57/56 93/57/56 94/59/56
f 16/15/57 14/13/57 71/13/57 72/15/57
f 34/33/58 32/31/58 80/31/58 81/33/58
f 52/51/59 50/49/59 89/49/59 90/51/59
f 8/7/60 6/5/60 67/5/60 68/7/60
f 26/25/61 24/23/61 76/23/61 77/25/61
f 44/43/62 42/41/62 85/41/62 86/43/62
f 62/61/63 60/59/63 94/59/63 95/61/63
f 18/17/64 16/15/64 72/15/64 73/17/64
f 36/35/65 34/33/65 81/33/65 82/35/65
f 54/53/66 52/51/66 90/51/66 91/53/66
f 97/99/67 98/100/67 128/101/67 127/102/67 126/103/67 125/104/67 124/105/67 123/106/67 122/107/67 121/108/67 120/109/67 119/110/67 118/111/67 117/112/67 116/113/67 115/114/67 114/115/67 113/116/67 112/117/67 111/118/67 110/119/67 109/120/67 108/121/67 107/122/67 106/123/67 105/124/67 104/125/67 103/126/67 102/127/67 101/128/67 100/129/67 99/130/67
f 75/21/68 74/19/68 106/19/68 107/21/68
f 89/49/69 88/47/69 120/47/69 121/49/69
f 76/23/70 75/21/70 107/21/70 108/23/70
f 90/51/71 89/49/71 121/49/71 122/51/71
f 77/25/72 76/23/72 108/23/72 109/25/72
f 91/53/73 90/51/73 122/51/73 123/53/73
f 78/27/74 77/25/74 109/25/74 110/27/74
f 92/55/75 91/53/75 123/53/75 124/55/75
f 79/29/76 78/27/76 110/27/76 111/29/76
f 65/3/77 66/2/77 98/2/77 97/3/77
f 93/57/78 92/55/78 124/55/78 125/57/78
f 80/31/79 79/29/79 111/29/79 112/31/79
f 67/5/80 65/3/80 97/3/80 99/5/80
f 94/59/81 93/57/81 125/57/81 126/59/81
f 81/33/82 80/31/82 112/31/82 113/33/82
f 68/7/83 67/5/83 99/5/83 100/7/83
f 95/61/84 94/59/84 126/59/84 127/61/84
f 82/35/85 81/33/85 113/33/85 114/35/85
f 69/9/86 68/7/86 100/7/86 101/9/86
f 96/63/87 95/61/87 127/61/87 128/63/87
f 83/37/88 82/35/88 114/35/88 115/37/88
f 70/11/89 69/9/89 101/9/89 102/11/89
f 66/65/90 96/63/90 128/63/90 98/65/90
f 84/39/91 83/37/91 115/37/91 116/39/91
f 71/13/92 70/11/92 102/11/92 103/13/92
f 85/41/93 84/39/93 116/39/93 117/41/93
f 72/15/94 71/13/94 103/13/94 104/15/94
f 86/43/95 85/41/95 117/41/95 118/43/95
f 73/17/96 72/15/96 104/15/96 105/17/96
f 87/45/97 86/43/97 118/43/97 119/45/97
f 74/19/98 73/17/98 105/17/98 106/19/98
